<mxfile host="Electron" modified="2024-09-29T22:37:06.231Z" agent="Mozilla/5.0 (Windows NT 10.0; Win64; x64) AppleWebKit/537.36 (KHTML, like Gecko) draw.io/24.1.0 Chrome/120.0.6099.109 Electron/28.1.0 Safari/537.36" etag="YIVIQs9tA0DnYNNwN-X-" version="24.1.0" type="device">
  <diagram name="Page-1" id="CA7bwVQdiNvXaS6O0nU-">
    <mxGraphModel dx="802" dy="1656" grid="1" gridSize="10" guides="1" tooltips="1" connect="1" arrows="1" fold="1" page="1" pageScale="1" pageWidth="850" pageHeight="1100" math="0" shadow="0">
      <root>
        <mxCell id="0" />
        <mxCell id="1" parent="0" />
        <mxCell id="czzO4yFzL6lQM5nHfQsf-1" value="Actor" style="shape=umlActor;verticalLabelPosition=bottom;verticalAlign=top;html=1;outlineConnect=0;" vertex="1" parent="1">
          <mxGeometry x="40" y="40" width="30" height="60" as="geometry" />
        </mxCell>
        <mxCell id="czzO4yFzL6lQM5nHfQsf-2" value="&lt;b&gt;Client&lt;/b&gt;" style="text;strokeColor=none;align=center;fillColor=none;html=1;verticalAlign=middle;whiteSpace=wrap;rounded=0;" vertex="1" parent="1">
          <mxGeometry x="25" y="120" width="60" height="30" as="geometry" />
        </mxCell>
        <mxCell id="czzO4yFzL6lQM5nHfQsf-3" value="EcoBin App" style="rounded=1;whiteSpace=wrap;html=1;shadow=1;" vertex="1" parent="1">
          <mxGeometry x="180" y="90" width="110" height="30" as="geometry" />
        </mxCell>
        <mxCell id="czzO4yFzL6lQM5nHfQsf-6" value="EcoBin Server" style="rounded=1;whiteSpace=wrap;html=1;shadow=1;" vertex="1" parent="1">
          <mxGeometry x="370" y="90" width="110" height="30" as="geometry" />
        </mxCell>
        <mxCell id="czzO4yFzL6lQM5nHfQsf-7" value="Rubbish Collector" style="rounded=1;whiteSpace=wrap;html=1;shadow=1;" vertex="1" parent="1">
          <mxGeometry x="560" y="90" width="110" height="30" as="geometry" />
        </mxCell>
        <mxCell id="czzO4yFzL6lQM5nHfQsf-8" value="Payment Gateway" style="rounded=1;whiteSpace=wrap;html=1;shadow=1;" vertex="1" parent="1">
          <mxGeometry x="750" y="90" width="110" height="30" as="geometry" />
        </mxCell>
        <mxCell id="czzO4yFzL6lQM5nHfQsf-9" value="EcoBin Admins" style="rounded=1;whiteSpace=wrap;html=1;shadow=1;" vertex="1" parent="1">
          <mxGeometry x="960" y="90" width="110" height="30" as="geometry" />
        </mxCell>
        <mxCell id="czzO4yFzL6lQM5nHfQsf-14" value="" style="endArrow=none;dashed=1;html=1;rounded=0;strokeWidth=3;" edge="1" parent="1">
          <mxGeometry width="50" height="50" relative="1" as="geometry">
            <mxPoint x="805" y="430" as="sourcePoint" />
            <mxPoint x="805" y="160" as="targetPoint" />
          </mxGeometry>
        </mxCell>
        <mxCell id="czzO4yFzL6lQM5nHfQsf-15" value="" style="endArrow=none;dashed=1;html=1;rounded=0;strokeWidth=3;" edge="1" parent="1">
          <mxGeometry width="50" height="50" relative="1" as="geometry">
            <mxPoint x="1014.5" y="510" as="sourcePoint" />
            <mxPoint x="1014.5" y="150" as="targetPoint" />
          </mxGeometry>
        </mxCell>
        <mxCell id="czzO4yFzL6lQM5nHfQsf-16" value="" style="html=1;points=[[0,0,0,0,5],[0,1,0,0,-5],[1,0,0,0,5],[1,1,0,0,-5]];perimeter=orthogonalPerimeter;outlineConnect=0;targetShapes=umlLifeline;portConstraint=eastwest;newEdgeStyle={&quot;curved&quot;:0,&quot;rounded&quot;:0};" vertex="1" parent="1">
          <mxGeometry x="50" y="160" width="10" height="480" as="geometry" />
        </mxCell>
        <mxCell id="czzO4yFzL6lQM5nHfQsf-17" value="" style="html=1;points=[[0,0,0,0,5],[0,1,0,0,-5],[1,0,0,0,5],[1,1,0,0,-5]];perimeter=orthogonalPerimeter;outlineConnect=0;targetShapes=umlLifeline;portConstraint=eastwest;newEdgeStyle={&quot;curved&quot;:0,&quot;rounded&quot;:0};" vertex="1" parent="1">
          <mxGeometry x="230" y="160" width="10" height="380" as="geometry" />
        </mxCell>
        <mxCell id="czzO4yFzL6lQM5nHfQsf-18" value="&lt;b&gt;Login&lt;/b&gt;" style="html=1;verticalAlign=bottom;startArrow=oval;endArrow=block;startSize=8;curved=0;rounded=0;entryX=0;entryY=0;entryDx=0;entryDy=5;" edge="1" target="czzO4yFzL6lQM5nHfQsf-17" parent="1" source="czzO4yFzL6lQM5nHfQsf-16">
          <mxGeometry relative="1" as="geometry">
            <mxPoint x="160" y="165" as="sourcePoint" />
          </mxGeometry>
        </mxCell>
        <mxCell id="czzO4yFzL6lQM5nHfQsf-20" value="" style="html=1;points=[[0,0,0,0,5],[0,1,0,0,-5],[1,0,0,0,5],[1,1,0,0,-5]];perimeter=orthogonalPerimeter;outlineConnect=0;targetShapes=umlLifeline;portConstraint=eastwest;newEdgeStyle={&quot;curved&quot;:0,&quot;rounded&quot;:0};" vertex="1" parent="1">
          <mxGeometry x="415" y="180" width="10" height="410" as="geometry" />
        </mxCell>
        <mxCell id="czzO4yFzL6lQM5nHfQsf-22" value="" style="endArrow=none;dashed=1;html=1;rounded=0;strokeWidth=3;jumpSize=2;" edge="1" parent="1">
          <mxGeometry width="50" height="50" relative="1" as="geometry">
            <mxPoint x="419.5" y="180" as="sourcePoint" />
            <mxPoint x="420" y="160" as="targetPoint" />
          </mxGeometry>
        </mxCell>
        <mxCell id="czzO4yFzL6lQM5nHfQsf-27" value="&lt;b&gt;Notify Collection Request&lt;/b&gt;" style="html=1;verticalAlign=bottom;endArrow=block;curved=0;rounded=0;" edge="1" parent="1" target="czzO4yFzL6lQM5nHfQsf-28">
          <mxGeometry width="80" relative="1" as="geometry">
            <mxPoint x="425" y="290" as="sourcePoint" />
            <mxPoint x="600" y="290" as="targetPoint" />
          </mxGeometry>
        </mxCell>
        <mxCell id="czzO4yFzL6lQM5nHfQsf-28" value="" style="html=1;points=[[0,0,0,0,5],[0,1,0,0,-5],[1,0,0,0,5],[1,1,0,0,-5]];perimeter=orthogonalPerimeter;outlineConnect=0;targetShapes=umlLifeline;portConstraint=eastwest;newEdgeStyle={&quot;curved&quot;:0,&quot;rounded&quot;:0};" vertex="1" parent="1">
          <mxGeometry x="610" y="290" width="10" height="80" as="geometry" />
        </mxCell>
        <mxCell id="czzO4yFzL6lQM5nHfQsf-29" value="" style="endArrow=none;dashed=1;html=1;rounded=0;strokeWidth=3;" edge="1" parent="1">
          <mxGeometry width="50" height="50" relative="1" as="geometry">
            <mxPoint x="615" y="290" as="sourcePoint" />
            <mxPoint x="615" y="160" as="targetPoint" />
          </mxGeometry>
        </mxCell>
        <mxCell id="czzO4yFzL6lQM5nHfQsf-31" value="&lt;b&gt;Send Collection Request&lt;/b&gt;" style="html=1;verticalAlign=bottom;endArrow=block;curved=0;rounded=0;" edge="1" parent="1" target="czzO4yFzL6lQM5nHfQsf-20">
          <mxGeometry width="80" relative="1" as="geometry">
            <mxPoint x="240" y="280" as="sourcePoint" />
            <mxPoint x="320" y="280" as="targetPoint" />
          </mxGeometry>
        </mxCell>
        <mxCell id="czzO4yFzL6lQM5nHfQsf-33" value="&lt;b&gt;Authentication success&lt;/b&gt;" style="html=1;verticalAlign=bottom;endArrow=open;dashed=1;endSize=8;curved=0;rounded=0;" edge="1" parent="1" source="czzO4yFzL6lQM5nHfQsf-20">
          <mxGeometry relative="1" as="geometry">
            <mxPoint x="320" y="230" as="sourcePoint" />
            <mxPoint x="240" y="230" as="targetPoint" />
          </mxGeometry>
        </mxCell>
        <mxCell id="czzO4yFzL6lQM5nHfQsf-34" value="&lt;b&gt;Authenticate user&lt;/b&gt;" style="html=1;verticalAlign=bottom;endArrow=block;curved=0;rounded=0;" edge="1" parent="1" source="czzO4yFzL6lQM5nHfQsf-17">
          <mxGeometry width="80" relative="1" as="geometry">
            <mxPoint x="250" y="180" as="sourcePoint" />
            <mxPoint x="420" y="180" as="targetPoint" />
          </mxGeometry>
        </mxCell>
        <mxCell id="czzO4yFzL6lQM5nHfQsf-35" value="&lt;b&gt;Request Rubbish Collection&lt;/b&gt;" style="html=1;verticalAlign=bottom;endArrow=block;curved=0;rounded=0;" edge="1" parent="1" target="czzO4yFzL6lQM5nHfQsf-17">
          <mxGeometry width="80" relative="1" as="geometry">
            <mxPoint x="60" y="260" as="sourcePoint" />
            <mxPoint x="140" y="260" as="targetPoint" />
          </mxGeometry>
        </mxCell>
        <mxCell id="czzO4yFzL6lQM5nHfQsf-36" value="&lt;b&gt;Accept Reques&lt;/b&gt;t" style="html=1;verticalAlign=bottom;endArrow=open;dashed=1;endSize=8;curved=0;rounded=0;" edge="1" parent="1" target="czzO4yFzL6lQM5nHfQsf-20">
          <mxGeometry relative="1" as="geometry">
            <mxPoint x="610" y="319.5" as="sourcePoint" />
            <mxPoint x="530" y="319.5" as="targetPoint" />
          </mxGeometry>
        </mxCell>
        <mxCell id="czzO4yFzL6lQM5nHfQsf-37" value="&lt;b&gt;Update Request Status&lt;/b&gt;" style="html=1;verticalAlign=bottom;endArrow=open;dashed=1;endSize=8;curved=0;rounded=0;" edge="1" parent="1" target="czzO4yFzL6lQM5nHfQsf-17">
          <mxGeometry relative="1" as="geometry">
            <mxPoint x="415" y="340" as="sourcePoint" />
            <mxPoint x="335" y="340" as="targetPoint" />
          </mxGeometry>
        </mxCell>
        <mxCell id="czzO4yFzL6lQM5nHfQsf-38" value="&lt;b&gt;Show Request Status&lt;/b&gt;" style="html=1;verticalAlign=bottom;endArrow=open;dashed=1;endSize=8;curved=0;rounded=0;" edge="1" parent="1" target="czzO4yFzL6lQM5nHfQsf-16">
          <mxGeometry relative="1" as="geometry">
            <mxPoint x="230" y="360" as="sourcePoint" />
            <mxPoint x="150" y="360" as="targetPoint" />
          </mxGeometry>
        </mxCell>
        <mxCell id="czzO4yFzL6lQM5nHfQsf-39" value="&lt;b&gt;Confirm Rubbish Collection&lt;/b&gt;" style="html=1;verticalAlign=bottom;endArrow=block;curved=0;rounded=0;" edge="1" parent="1">
          <mxGeometry width="80" relative="1" as="geometry">
            <mxPoint x="60" y="400" as="sourcePoint" />
            <mxPoint x="230" y="400" as="targetPoint" />
          </mxGeometry>
        </mxCell>
        <mxCell id="czzO4yFzL6lQM5nHfQsf-40" value="&lt;b&gt;Update Collection status&lt;/b&gt;" style="html=1;verticalAlign=bottom;endArrow=block;curved=0;rounded=0;" edge="1" parent="1">
          <mxGeometry width="80" relative="1" as="geometry">
            <mxPoint x="240" y="420" as="sourcePoint" />
            <mxPoint x="420" y="420" as="targetPoint" />
          </mxGeometry>
        </mxCell>
        <mxCell id="czzO4yFzL6lQM5nHfQsf-41" value="&lt;b&gt;Process Payment&lt;/b&gt;" style="html=1;verticalAlign=bottom;endArrow=block;curved=0;rounded=0;" edge="1" parent="1" target="czzO4yFzL6lQM5nHfQsf-42">
          <mxGeometry width="80" relative="1" as="geometry">
            <mxPoint x="425" y="440" as="sourcePoint" />
            <mxPoint x="505" y="440" as="targetPoint" />
          </mxGeometry>
        </mxCell>
        <mxCell id="czzO4yFzL6lQM5nHfQsf-42" value="" style="html=1;points=[[0,0,0,0,5],[0,1,0,0,-5],[1,0,0,0,5],[1,1,0,0,-5]];perimeter=orthogonalPerimeter;outlineConnect=0;targetShapes=umlLifeline;portConstraint=eastwest;newEdgeStyle={&quot;curved&quot;:0,&quot;rounded&quot;:0};" vertex="1" parent="1">
          <mxGeometry x="800" y="440" width="10" height="80" as="geometry" />
        </mxCell>
        <mxCell id="czzO4yFzL6lQM5nHfQsf-43" value="&lt;b&gt;Payment Success&lt;/b&gt;" style="html=1;verticalAlign=bottom;endArrow=open;dashed=1;endSize=8;curved=0;rounded=0;" edge="1" parent="1" target="czzO4yFzL6lQM5nHfQsf-20">
          <mxGeometry relative="1" as="geometry">
            <mxPoint x="800" y="470" as="sourcePoint" />
            <mxPoint x="480" y="470" as="targetPoint" />
          </mxGeometry>
        </mxCell>
        <mxCell id="czzO4yFzL6lQM5nHfQsf-44" value="&lt;b&gt;Update Payment Status&lt;/b&gt;" style="html=1;verticalAlign=bottom;endArrow=open;dashed=1;endSize=8;curved=0;rounded=0;entryX=1;entryY=0.868;entryDx=0;entryDy=0;entryPerimeter=0;" edge="1" parent="1" target="czzO4yFzL6lQM5nHfQsf-17">
          <mxGeometry relative="1" as="geometry">
            <mxPoint x="415" y="490" as="sourcePoint" />
            <mxPoint x="335" y="490" as="targetPoint" />
          </mxGeometry>
        </mxCell>
        <mxCell id="czzO4yFzL6lQM5nHfQsf-47" value="&lt;b&gt;Show Payment Confirmation&lt;/b&gt;" style="html=1;verticalAlign=bottom;endArrow=open;dashed=1;endSize=8;curved=0;rounded=0;" edge="1" parent="1">
          <mxGeometry relative="1" as="geometry">
            <mxPoint x="230" y="519" as="sourcePoint" />
            <mxPoint x="60" y="519" as="targetPoint" />
            <mxPoint as="offset" />
          </mxGeometry>
        </mxCell>
        <mxCell id="czzO4yFzL6lQM5nHfQsf-49" value="&lt;b&gt;Login&lt;/b&gt;" style="html=1;verticalAlign=bottom;endArrow=block;curved=0;rounded=0;" edge="1" parent="1" target="czzO4yFzL6lQM5nHfQsf-20">
          <mxGeometry width="80" relative="1" as="geometry">
            <mxPoint x="1010" y="539" as="sourcePoint" />
            <mxPoint x="910" y="540" as="targetPoint" />
          </mxGeometry>
        </mxCell>
        <mxCell id="czzO4yFzL6lQM5nHfQsf-50" value="" style="html=1;points=[[0,0,0,0,5],[0,1,0,0,-5],[1,0,0,0,5],[1,1,0,0,-5]];perimeter=orthogonalPerimeter;outlineConnect=0;targetShapes=umlLifeline;portConstraint=eastwest;newEdgeStyle={&quot;curved&quot;:0,&quot;rounded&quot;:0};" vertex="1" parent="1">
          <mxGeometry x="1010" y="520" width="10" height="110" as="geometry" />
        </mxCell>
        <mxCell id="czzO4yFzL6lQM5nHfQsf-51" value="&lt;b&gt;Authenticate Administrator&lt;/b&gt;" style="html=1;verticalAlign=bottom;endArrow=block;curved=0;rounded=0;" edge="1" parent="1" source="czzO4yFzL6lQM5nHfQsf-20">
          <mxGeometry width="80" relative="1" as="geometry">
            <mxPoint x="410" y="570" as="sourcePoint" />
            <mxPoint x="60" y="570" as="targetPoint" />
            <mxPoint as="offset" />
          </mxGeometry>
        </mxCell>
        <mxCell id="czzO4yFzL6lQM5nHfQsf-52" value="&lt;b&gt;Shoe Request List and Details&lt;/b&gt;" style="html=1;verticalAlign=bottom;endArrow=block;curved=0;rounded=0;" edge="1" parent="1" source="czzO4yFzL6lQM5nHfQsf-16">
          <mxGeometry width="80" relative="1" as="geometry">
            <mxPoint x="60" y="630" as="sourcePoint" />
            <mxPoint x="1012" y="610" as="targetPoint" />
          </mxGeometry>
        </mxCell>
        <mxCell id="czzO4yFzL6lQM5nHfQsf-53" value="&lt;font style=&quot;font-size: 19px;&quot;&gt;&lt;b&gt;SEQUENCE DIAGRAM FOR ECOBIN SYSTEM&lt;/b&gt;&lt;/font&gt;" style="whiteSpace=wrap;html=1;" vertex="1" parent="1">
          <mxGeometry x="330" y="-60" width="450" height="40" as="geometry" />
        </mxCell>
      </root>
    </mxGraphModel>
  </diagram>
</mxfile>
